<?xml version="1.0" encoding="UTF-8" standalone="no"?>
<!-- Created with Inkscape (http://www.inkscape.org/) -->

<svg
   xmlns:osb="http://www.openswatchbook.org/uri/2009/osb"
   xmlns:dc="http://purl.org/dc/elements/1.1/"
   xmlns:cc="http://creativecommons.org/ns#"
   xmlns:rdf="http://www.w3.org/1999/02/22-rdf-syntax-ns#"
   xmlns:svg="http://www.w3.org/2000/svg"
   xmlns="http://www.w3.org/2000/svg"
   xmlns:sodipodi="http://sodipodi.sourceforge.net/DTD/sodipodi-0.dtd"
   xmlns:inkscape="http://www.inkscape.org/namespaces/inkscape"
   width="210mm"
   height="297mm"
   viewBox="0 0 210 297"
   version="1.1"
   id="svg8"
   inkscape:version="0.92.2 (5c3e80d, 2017-08-06)"
   sodipodi:docname="face_logo.svg">
  <defs
     id="defs2">
    <linearGradient
       id="linearGradient6011"
       osb:paint="solid">
      <stop
         style="stop-color:#ffffff;stop-opacity:1;"
         offset="0"
         id="stop6009" />
    </linearGradient>
    <filter
       inkscape:collect="always"
       style="color-interpolation-filters:sRGB"
       id="filter6769"
       x="-0.041326227"
       width="1.0826525"
       y="-0.028307681"
       height="1.0566154">
      <feGaussianBlur
         inkscape:collect="always"
         stdDeviation="3.2784676"
         id="feGaussianBlur6771" />
    </filter>
    <filter
       inkscape:collect="always"
       style="color-interpolation-filters:sRGB"
       id="filter7081"
       x="-0.10990691"
       width="1.2198138"
       y="-0.037932836"
       height="1.0758657">
      <feGaussianBlur
         inkscape:collect="always"
         stdDeviation="3.9477137"
         id="feGaussianBlur7083" />
    </filter>
  </defs>
  <sodipodi:namedview
     id="base"
     pagecolor="#ffffff"
     bordercolor="#666666"
     borderopacity="1.0"
     inkscape:pageopacity="0.0"
     inkscape:pageshadow="2"
     inkscape:zoom="0.35"
     inkscape:cx="90.810453"
     inkscape:cy="582.61415"
     inkscape:document-units="mm"
     inkscape:current-layer="layer1"
     showgrid="false"
     inkscape:window-width="1920"
     inkscape:window-height="1017"
     inkscape:window-x="-4"
     inkscape:window-y="-4"
     inkscape:window-maximized="1" />
  <metadata
     id="metadata5">
    <rdf:RDF>
      <cc:Work
         rdf:about="">
        <dc:format>image/svg+xml</dc:format>
        <dc:type
           rdf:resource="http://purl.org/dc/dcmitype/StillImage" />
        <dc:title></dc:title>
      </cc:Work>
    </rdf:RDF>
  </metadata>
  <g
     inkscape:label="Capa 1"
     inkscape:groupmode="layer"
     id="layer1">
    <path
       style="fill:#000080;stroke-width:32.41322876;stroke:#ffffff;stroke-opacity:0.57534248;stroke-miterlimit:4;stroke-dasharray:none;stroke-linejoin:round;stroke-linecap:round"
       d="M 467.27148 62.853516 C 463.26537 62.853516 459.29551 62.969531 455.36133 63.203125 C 451.42714 63.436719 447.52827 63.788672 443.66602 64.255859 C 439.80376 64.723047 435.97783 65.307032 432.1875 66.007812 C 428.39717 66.708593 424.64223 67.524612 420.92383 68.458984 C 417.20543 69.393357 413.52342 70.445316 409.87695 71.613281 C 406.23049 72.781246 402.61946 74.06524 399.04492 75.466797 C 395.47039 76.868353 391.93229 78.38829 388.42969 80.023438 C 384.92708 81.658585 381.45997 83.410559 378.0293 85.279297 C 374.59863 87.148035 371.20444 89.132046 367.8457 91.234375 C 364.48696 93.336704 361.16376 95.55666 357.87695 97.892578 C 354.59015 100.2285 351.33987 102.68049 348.125 105.25 C 344.91013 107.81951 341.73082 110.5055 338.58789 113.30859 C 335.44496 116.11169 332.33858 119.03167 329.26758 122.06836 C 326.19658 125.10504 323.16117 128.25902 320.16211 131.5293 C 317.16305 134.79957 314.20056 138.18755 311.27344 141.69141 C 308.34631 145.19527 305.45479 148.81529 302.59961 152.55273 C 300.29776 155.55894 298.06814 158.64522 295.91016 161.81055 C 293.75217 164.97588 291.66646 168.22047 289.65234 171.54492 C 287.63823 174.86937 285.69447 178.27229 283.82422 181.75586 C 281.95397 185.23943 280.15607 188.80262 278.42969 192.44531 C 276.70331 196.088 275.04931 199.81148 273.4668 203.61328 C 271.88428 207.41509 270.3742 211.29689 268.93555 215.25781 C 267.4969 219.21873 266.12877 223.25887 264.83398 227.37891 C 263.5392 231.49894 262.31693 235.69742 261.16602 239.97656 C 260.0151 244.25571 258.93674 248.61448 257.92969 253.05273 C 256.92264 257.49099 255.98818 262.01005 255.125 266.60742 C 253.39863 275.80216 251.9595 285.31531 250.80859 295.14648 C 249.65768 304.97766 248.7942 315.12615 248.21875 325.59375 C 247.6433 336.06135 247.35547 346.84716 247.35547 357.95117 L 247.35547 437.89844 L 185.20508 437.89844 L 185.20508 613.39648 L 247.35547 613.39648 L 247.35547 1041.0918 L 421.58789 1041.0918 L 421.58789 613.39648 L 544.29492 613.39648 L 544.29492 437.89844 L 421.58789 437.89844 L 421.58789 372.90039 C 421.58789 360.55056 421.78706 349.35251 422.18555 339.30469 C 422.58403 329.25686 423.1816 320.35907 423.97852 312.61328 C 424.37697 308.74039 424.82617 305.1548 425.32422 301.85742 C 425.82227 298.56004 426.36916 295.55194 426.9668 292.83008 C 427.56444 290.10822 428.21293 287.67368 428.91016 285.52734 C 429.60738 283.38101 430.35359 281.52198 431.15039 279.95117 C 432.52265 277.18871 433.99497 274.59876 435.56641 272.18164 C 437.13785 269.76452 438.8075 267.52101 440.57812 265.44922 C 442.34875 263.37742 444.21964 261.47843 446.18945 259.75195 C 448.15927 258.02548 450.22943 256.47101 452.39844 255.08984 C 454.56745 253.70868 456.83491 252.5007 459.20312 251.46484 C 461.57134 250.42898 464.04 249.56556 466.60742 248.875 C 469.17484 248.18444 471.84079 247.66559 474.60742 247.32031 C 477.37406 246.97503 480.24118 246.80273 483.20703 246.80273 C 485.33182 246.80273 487.50835 246.92724 489.73828 247.17773 C 491.96821 247.42823 494.25087 247.80565 496.58594 248.30664 C 498.921 248.80764 501.3098 249.43209 503.75 250.18359 C 506.1902 250.9351 508.68318 251.81244 511.22852 252.81445 C 513.77385 253.81647 516.37102 254.94473 519.02148 256.19727 C 521.67195 257.4498 524.37526 258.82701 527.13086 260.33008 C 532.64205 263.33621 538.36322 266.84329 544.29492 270.85156 L 544.29492 84.955078 C 541.06347 83.113437 537.83529 81.386878 534.60938 79.775391 C 531.38346 78.163904 528.15983 76.668428 524.93945 75.287109 C 521.71908 73.905791 518.50195 72.639416 515.28711 71.488281 C 512.07227 70.337146 508.8597 69.299844 505.65039 68.378906 C 502.44108 67.457969 499.23502 66.651662 496.03125 65.960938 C 492.82748 65.270213 489.62598 64.694873 486.42773 64.234375 C 483.22949 63.773877 480.03451 63.429475 476.8418 63.199219 C 473.64908 62.968963 470.45867 62.853516 467.27148 62.853516 z "
       id="path4545"
       transform="scale(0.26458333)" />
    <path
       style="fill:#000080;stroke-width:13.89182186"
       d="M 396.42773 2.5195312 A 392.14285 557.85714 0 0 0 4.2851562 560.37695 A 392.14285 557.85714 0 0 0 396.42773 1118.2344 A 392.14285 557.85714 0 0 0 788.57227 560.37695 A 392.14285 557.85714 0 0 0 396.42773 2.5195312 z M 467.27148 62.853516 C 470.45867 62.853516 473.64908 62.968963 476.8418 63.199219 C 480.03451 63.429475 483.22949 63.773877 486.42773 64.234375 C 489.62598 64.694873 492.82748 65.270213 496.03125 65.960938 C 499.23502 66.651662 502.44108 67.457969 505.65039 68.378906 C 508.8597 69.299844 512.07227 70.337146 515.28711 71.488281 C 518.50195 72.639416 521.71908 73.905791 524.93945 75.287109 C 528.15983 76.668428 531.38346 78.163904 534.60938 79.775391 C 537.83529 81.386878 541.06347 83.113437 544.29492 84.955078 L 544.29492 270.85156 C 538.36322 266.84329 532.64205 263.33621 527.13086 260.33008 C 524.37526 258.82701 521.67195 257.4498 519.02148 256.19727 C 516.37102 254.94473 513.77385 253.81647 511.22852 252.81445 C 508.68318 251.81244 506.1902 250.9351 503.75 250.18359 C 501.3098 249.43209 498.921 248.80764 496.58594 248.30664 C 494.25087 247.80565 491.96821 247.42823 489.73828 247.17773 C 487.50835 246.92724 485.33182 246.80273 483.20703 246.80273 C 480.24118 246.80273 477.37406 246.97503 474.60742 247.32031 C 471.84079 247.66559 469.17484 248.18444 466.60742 248.875 C 464.04 249.56556 461.57134 250.42898 459.20312 251.46484 C 456.83491 252.5007 454.56745 253.70868 452.39844 255.08984 C 450.22943 256.47101 448.15927 258.02548 446.18945 259.75195 C 444.21964 261.47843 442.34875 263.37742 440.57812 265.44922 C 438.8075 267.52101 437.13785 269.76452 435.56641 272.18164 C 433.99497 274.59876 432.52265 277.18871 431.15039 279.95117 C 430.35359 281.52198 429.60738 283.38101 428.91016 285.52734 C 428.21293 287.67368 427.56444 290.10822 426.9668 292.83008 C 426.36916 295.55194 425.82227 298.56004 425.32422 301.85742 C 424.82617 305.1548 424.37697 308.74039 423.97852 312.61328 C 423.1816 320.35907 422.58403 329.25686 422.18555 339.30469 C 421.78706 349.35251 421.58789 360.55056 421.58789 372.90039 L 421.58789 437.89844 L 544.29492 437.89844 L 544.29492 613.39648 L 421.58789 613.39648 L 421.58789 1041.0918 L 247.35547 1041.0918 L 247.35547 613.39648 L 185.20508 613.39648 L 185.20508 437.89844 L 247.35547 437.89844 L 247.35547 357.95117 C 247.35547 346.84716 247.6433 336.06135 248.21875 325.59375 C 248.7942 315.12615 249.65768 304.97766 250.80859 295.14648 C 251.9595 285.31531 253.39863 275.80216 255.125 266.60742 C 255.98818 262.01005 256.92264 257.49099 257.92969 253.05273 C 258.93674 248.61448 260.0151 244.25571 261.16602 239.97656 C 262.31693 235.69742 263.5392 231.49894 264.83398 227.37891 C 266.12877 223.25887 267.4969 219.21873 268.93555 215.25781 C 270.3742 211.29689 271.88428 207.41509 273.4668 203.61328 C 275.04931 199.81148 276.70331 196.088 278.42969 192.44531 C 280.15607 188.80262 281.95397 185.23943 283.82422 181.75586 C 285.69447 178.27229 287.63823 174.86937 289.65234 171.54492 C 291.66646 168.22047 293.75217 164.97588 295.91016 161.81055 C 298.06814 158.64522 300.29776 155.55894 302.59961 152.55273 C 305.45479 148.81529 308.34631 145.19527 311.27344 141.69141 C 314.20056 138.18755 317.16305 134.79957 320.16211 131.5293 C 323.16117 128.25902 326.19658 125.10504 329.26758 122.06836 C 332.33858 119.03167 335.44496 116.11169 338.58789 113.30859 C 341.73082 110.5055 344.91013 107.81951 348.125 105.25 C 351.33987 102.68049 354.59015 100.2285 357.87695 97.892578 C 361.16376 95.55666 364.48696 93.336704 367.8457 91.234375 C 371.20444 89.132046 374.59863 87.148035 378.0293 85.279297 C 381.45997 83.410559 384.92708 81.658585 388.42969 80.023438 C 391.93229 78.38829 395.47039 76.868353 399.04492 75.466797 C 402.61946 74.06524 406.23049 72.781246 409.87695 71.613281 C 413.52342 70.445316 417.20543 69.393357 420.92383 68.458984 C 424.64223 67.524612 428.39717 66.708593 432.1875 66.007812 C 435.97783 65.307032 439.80376 64.723047 443.66602 64.255859 C 447.52827 63.788672 451.42714 63.436719 455.36133 63.203125 C 459.29551 62.969531 463.26537 62.853516 467.27148 62.853516 z "
       id="path3701"
       transform="scale(0.26458333)" />
    <path
       style="fill:#ffffff;fill-opacity:0.53424656;stroke:none;stroke-width:0;stroke-linecap:round;stroke-linejoin:round;stroke-miterlimit:4;stroke-dasharray:none;stroke-opacity:0.57534246;filter:url(#filter7081)"
       d="m 122.91797,21.164062 c -25.346933,0.274603 -45.378232,22.754192 -50.181642,46.394532 -4.143974,16.148082 -1.801427,33.491076 -3.384766,50.042966 -3.662045,5.48946 -10.873323,1.20902 -15.859374,3.03125 -0.487136,5.94546 0.846956,12.01959 0.04215,18.03125 0.01706,6.41858 -0.05989,12.89767 0.04574,19.27735 5.219049,0.18413 12.872226,-2.18113 16.060547,3.34179 0.823442,36.53545 0.03424,73.09633 0.333984,109.64258 12.347006,0 24.694011,0 37.041011,0 0.24306,-36.60537 -0.48554,-73.36702 0.36329,-109.875 3.55503,-6.2227 11.56554,-1.82725 17.13476,-3.28516 4.83873,-1.48418 16.28374,3.63791 14.96875,-4 0,-11.14908 0,-22.29817 0,-33.44726 -10.13741,-0.57169 -20.94789,1.67935 -30.65538,-1.34199 -3.94127,-5.5757 -0.7422,-13.23552 -1.72352,-19.638479 0.17521,-11.9273 -1.39904,-26.97863 9.32421,-35.144532 6.73839,-4.715922 15.93749,-4.048181 23.04688,-0.535156 -0.0385,-12.838325 0.12345,-25.683942 -0.0801,-38.517578 -5.09276,-2.541508 -10.75426,-4.120095 -16.47656,-3.976563 z"
       id="path6015"
       inkscape:connector-curvature="0" />
    <path
       style="fill:#005ddd;fill-opacity:1;stroke-width:3.6755445"
       d="M 104.81836,9.2519531 C 75.369958,9.8504139 49.704144,29.735543 34.910156,54.140625 -0.94530901,114.51803 0.94302856,196.1362 42.679617,253.34461 c 4.196108,5.40619 9.071946,10.38156 14.228586,14.71789 -0.154951,-32.29869 0.354556,-64.95401 -0.251953,-97.02734 -5.611357,0.0474 -11.284888,-1.13927 -16.205078,-3.90039 0.111551,-19.57666 -0.181894,-39.15766 0.335937,-58.73047 4.842001,-2.89309 10.896341,-1.9294 15.955079,-1.2461 C 56.055404,80.711158 58.544037,51.469334 76.796875,30.695312 85.407716,20.349582 98.118502,12.504401 110.64648,9.4765625 108.70921,9.301638 106.76335,9.2260352 104.81836,9.2519531 Z m 47.74805,23.6777349 c 0.0298,21.564261 0.17176,43.26669 -3.27735,64.617187 -3.55338,-9.672643 -8.7227,-22.952464 -20.81054,-23.566406 -7.95566,0.17173 -8.14083,10.194838 -8.36767,16.016055 -0.28406,5.754449 -0.0585,11.498166 0.22899,17.163636 10.76726,-0.45253 21.4914,1.24617 32.20118,-0.49024 0,21.38477 0,42.76953 0,64.1543 -10.82227,0 -21.64454,0 -32.4668,0 0,37.71549 0,75.43099 0,113.14648 -11.92377,0.0676 -23.847662,-0.008 -35.771486,-0.004 23.519386,7.85523 50.233376,0.95849 68.279886,-15.73936 31.68236,-27.62048 45.26981,-70.69181 47.22988,-111.64736 1.70838,-42.5322 -9.50901,-87.29811 -38.49805,-119.76758 -2.75406,-2.961176 -5.66898,-5.774813 -8.75195,-8.392578 0.001,1.503255 0.003,3.00651 0.004,4.509766 z"
       id="path6023"
       inkscape:connector-curvature="0" />
    <path
       inkscape:connector-curvature="0"
       id="path6047"
       d="M 104.81836,9.2519531 C 75.369958,9.8504139 49.704144,29.735543 34.910156,54.140625 -0.94530901,114.51803 0.94302856,196.1362 42.679617,253.34461 c 4.196108,5.40619 9.071946,10.38156 14.228586,14.71789 -0.154951,-32.29869 0.354556,-64.95401 -0.251953,-97.02734 -5.611357,0.0474 -11.284888,-1.13927 -16.205078,-3.90039 0.111551,-19.57666 -0.181894,-39.15766 0.335937,-58.73047 4.842001,-2.89309 10.896341,-1.9294 15.955079,-1.2461 C 56.055404,80.711158 58.544037,51.469334 76.796875,30.695312 85.407716,20.349582 98.118502,12.504401 110.64648,9.4765625 108.70921,9.301638 106.76335,9.2260352 104.81836,9.2519531 Z m 47.74805,23.6777349 c 0.0298,21.564261 0.17176,43.26669 -3.27735,64.617187 -3.55338,-9.672643 -8.7227,-22.952464 -20.81054,-23.566406 -7.95566,0.17173 -8.14083,10.194838 -8.36767,16.016055 -0.28406,5.754449 -0.0585,11.498166 0.22899,17.163636 10.76726,-0.45253 21.4914,1.24617 32.20118,-0.49024 0,21.38477 0,42.76953 0,64.1543 -10.82227,0 -21.64454,0 -32.4668,0 0,37.71549 0,75.43099 0,113.14648 -11.92377,0.0676 -23.847662,-0.008 -35.771486,-0.004 23.519386,7.85523 50.233376,0.95849 68.279886,-15.73936 31.68236,-27.62048 45.26981,-70.69181 47.22988,-111.64736 1.70838,-42.5322 -9.50901,-87.29811 -38.49805,-119.76758 -2.75406,-2.961176 -5.66898,-5.774813 -8.75195,-8.392578 0.001,1.503255 0.003,3.00651 0.004,4.509766 z"
       style="fill:#92b4dd;fill-opacity:0.5022831;stroke-width:3.6755445;opacity:1;filter:url(#filter6769)" />
  </g>
</svg>
